# xmcd
# 
# Track frame offsets:
#     150
#     12311
#     30025
#     52556
#     71720
#     89100
#     103503
#     118011
#     139758
#     153177
# 
# Disc length: 2430
# 
# Revision: 0
# Processed by: cddbd v1.5.2PL0 Copyright (c) Steve Scherf et al.
# Submitted via: fre:ac v1.0.17
# 
DISCID=74097c0a
DTITLE=Joy - Ride Along!
DYEAR=2016
DGENRE=Blues
TTITLE0=I’ve Been Down (Set Me Free)
TTITLE1=Misunderstood
TTITLE2=Evil Woman
TTITLE3=Going Down Slow
TTITLE4=Certified Blues
TTITLE5=Help Me
TTITLE6=Red, White and Blues
TTITLE7=Peyote Blues
TTITLE8=Ride Along!
TTITLE9=Gypsy Mother’s Son
EXTD=
EXTT0=
EXTT1=
EXTT2=
EXTT3=
EXTT4=
EXTT5=
EXTT6=
EXTT7=
EXTT8=
EXTT9=
PLAYORDER=
